<?xml version="1.0" encoding="utf-8"?>
<!-- Generator: Adobe Illustrator 22.1.0, SVG Export Plug-In . SVG Version: 6.00 Build 0)  -->
<svg version="1.1" id="Layer_1" xmlns="http://www.w3.org/2000/svg" xmlns:xlink="http://www.w3.org/1999/xlink" x="0px" y="0px"
	 viewBox="0 0 512 512" style="enable-background:new 0 0 512 512;" xml:space="preserve">
<g transform="translate(0.000000,512.000000) scale(0.100000,-0.100000)">
	<path d="M2524,5110c-12-4-31-21-43-36l-21-27V3888V2729l-312-509c-172-280-315-509-318-510c-3,0-88,136-190,302
		c-102,167-197,316-211,332c-34,38-99,41-134,5C1259,2312,0,129,0,104c0-37,22-74,51-90C93-7,5027-7,5069,14c29,16,51,53,51,90
		c0,25-1259,2208-1295,2245c-35,36-100,33-134-5c-14-16-109-165-211-332c-102-166-187-302-190-302c-3,1-146,230-317,510l-313,509
		v595v596h761c692,0,763,2,789,17c46,27,62,81,39,126c-7,11-90,119-186,239l-175,218l175,218c96,120,179,228,186,239
		c23,45,7,99-39,126c-26,16-100,17-847,16C2913,5119,2535,5115,2524,5110z M3918,4878c-256-316-266-333-254-382c5-20,78-115,254-333
		l34-43h-646h-646v400v400h646h646L3918,4878z M3272,1353l706-1148l-709-3c-390-1-1028-1-1418,0l-709,3l706,1148
		c389,631,709,1147,712,1147S2883,1984,3272,1353z M1535,1802c92-150,168-279,169-286c0-7-179-306-399-664L905,200H593
		c-172,0-313,3-313,6c0,8,1082,1876,1085,1872C1366,2076,1442,1952,1535,1802z M4304,1138c295-510,536-929,536-932s-141-6-312-6
		h-313l-400,652c-220,358-399,657-399,664c2,21,339,563,345,556C3765,2068,4009,1648,4304,1138z"/>
	<path d="M2524,1990c-32-13-64-59-64-91c0-40,46-88,91-95c31-5,42-1,70,24s34,37,34,72s-6,47-33,71C2589,2000,2562,2006,2524,1990z"
		/>
	<path d="M2744,1661c-12-5-29-20-38-33c-39-55-37-60,319-638c185-300,345-554,356-565c14-14,33-20,65-20c38,0,50,5,70,28
		c51,60,54,53-311,647c-185,300-344,553-353,563C2830,1664,2774,1673,2744,1661z"/>
</g>
</svg>
