<svg id="Layer_1" data-name="Layer 1" xmlns="http://www.w3.org/2000/svg" viewBox="0 0 576 512"><defs><style>.cls-1{fill:#671fec;}</style></defs><title>achieve1</title><path class="cls-1" d="M400,0H176c-26.5,0-48.1,21.8-47.1,48.2.2,5.3.4,10.6.7,15.8H24A23.94,23.94,0,0,0,0,88c0,92.6,33.5,157,78.5,200.7,44.3,43.1,98.3,64.8,138.1,75.8,23.4,6.5,39.4,26,39.4,45.6A37.94,37.94,0,0,1,218.1,448H192a32,32,0,0,0,0,64H384a32,32,0,0,0,0-64H357.9A37.94,37.94,0,0,1,320,410.1c0-19.6,15.9-39.2,39.4-45.6,39.9-11,93.9-32.7,138.2-75.8C542.5,245,576,180.6,576,88a23.94,23.94,0,0,0-24-24H446.4c.3-5.2.5-10.4.7-15.8C448.1,21.8,426.5,0,400,0ZM48.9,112h84.4c9.1,90.1,29.2,150.3,51.9,190.6-24.9-11-50.8-26.5-73.2-48.3-32-31.1-58-76-63-142.3ZM464.1,254.3c-22.4,21.8-48.3,37.3-73.2,48.3,22.7-40.3,42.8-100.5,51.9-190.6h84.4c-5.1,66.3-31.1,111.2-63,142.3Z"/></svg>