<svg id="Layer_1" data-name="Layer 1" xmlns="http://www.w3.org/2000/svg" viewBox="0 0 552.94 448.69"><defs><style>.cls-1{fill:#6050a2;}.cls-2{fill:#fff;}.cls-3{fill:#232323;}.cls-4,.cls-5,.cls-6,.cls-7{fill:none;stroke:#fff;}.cls-4,.cls-6{stroke-miterlimit:10;}.cls-5,.cls-7{stroke-linecap:round;stroke-linejoin:round;}.cls-5,.cls-6{stroke-width:2px;}</style></defs><title>Banner</title><circle class="cls-1" cx="45.58" cy="45.58" r="45.58"/><circle class="cls-2" cx="230.59" cy="45.58" r="45.58"/><circle class="cls-1" cx="321.71" cy="136.69" r="45.58"/><circle class="cls-3" cx="415.07" cy="137.62" r="45.58"/><circle class="cls-3" cx="321.71" cy="230.52" r="45.58"/><circle class="cls-1" cx="507.37" cy="230.52" r="45.58"/><circle class="cls-1" cx="416.74" cy="321.67" r="45.58"/><rect class="cls-3" x="92.83" width="90.11" height="172.6" rx="45.05" ry="45.05"/><rect class="cls-3" x="462.31" y="276.1" width="90.11" height="172.6" rx="45.05" ry="45.05"/><rect class="cls-3" x="585.31" y="27.79" width="90.11" height="182.15" rx="45.05" ry="45.05" transform="translate(577.89 -584.81) rotate(90)"/><path class="cls-1" d="M537,116.64A42.78,42.78,0,0,1,524.4,147h0a40.43,40.43,0,0,1-29.84,11.69c-1.08,0-2.17,0-3.27,0a51.54,51.54,0,0,0-49.61,51.12c0,.51,0,1,0,1.52a41,41,0,0,1-11.81,30.17l-.32.32a42.89,42.89,0,0,1-60.66-60.65l.35-.35a35.41,35.41,0,0,1,28-10.09c1.4.11,2.81.17,4.22.17a52,52,0,0,0,52-52c0-1.46-.06-2.92-.19-4.36a35,35,0,0,1,10-27.76,43.83,43.83,0,0,1,31-12.85,42.25,42.25,0,0,1,29,11.37A42.73,42.73,0,0,1,537,116.64Z" transform="translate(-171.34 -73.3)"/><path class="cls-2" d="M721.44,208.08a42.71,42.71,0,0,1-12.57,30.32h0A40.4,40.4,0,0,1,679,250.1c-1.08,0-2.17,0-3.27,0a51.54,51.54,0,0,0-49.61,51.12c0,.51,0,1,0,1.52a41,41,0,0,1-11.8,30.17l-.32.32a42.89,42.89,0,0,1-60.66-60.65l.35-.35a35.45,35.45,0,0,1,28-10.1c1.39.11,2.8.17,4.22.17a52,52,0,0,0,52-52c0-1.47-.05-2.92-.18-4.36a35,35,0,0,1,10-27.76,43.84,43.84,0,0,1,31-12.86,42.25,42.25,0,0,1,29,11.37A42.74,42.74,0,0,1,721.44,208.08Z" transform="translate(-171.34 -73.3)"/><path class="cls-2" d="M503.45,209.39l-4.28,4.27a.68.68,0,1,1-1-1l3.8-3.79-3.8-3.79a.68.68,0,1,1,1-1l4.28,4.27A.69.69,0,0,1,503.45,209.39Zm-14,8.34a.71.71,0,1,1-1.22-.71l8.45-16.88a.69.69,0,0,1,1-.26.71.71,0,0,1,.26,1Zm-1.56-4.07a.68.68,0,0,1-.95,0l-4.28-4.27a.69.69,0,0,1,0-1l4.28-4.27a.68.68,0,0,1,.95,1l-3.8,3.79,3.8,3.79A.67.67,0,0,1,487.87,213.66Z" transform="translate(-171.34 -73.3)"/><circle class="cls-4" cx="321.71" cy="135.63" r="16.12"/><g id="System_Data" data-name="System / Data"><path id="Vector" class="cls-5" d="M604.51,395v13.7c0,4.53-7.36,8.21-16.44,8.21s-16.43-3.68-16.43-8.21V395m32.87,0V381.28m0,13.69c0,4.54-7.36,8.22-16.44,8.22s-16.43-3.68-16.43-8.22m32.87-13.69c0-4.54-7.36-8.22-16.44-8.22s-16.43,3.68-16.43,8.22m32.87,0c0,4.54-7.36,8.22-16.44,8.22s-16.43-3.68-16.43-8.22m0,13.69V381.28" transform="translate(-171.34 -73.3)"/></g><rect class="cls-6" x="386.9" y="33.39" width="61.27" height="24.35" rx="12.17" ry="12.17"/><path class="cls-2" d="M570.55,118.86,566,123.39a.81.81,0,1,0,1.14,1.15l5.11-5.11a.8.8,0,0,0,0-1.14l-5.11-5.11a.81.81,0,0,0-1.14,0,.8.8,0,0,0,0,1.14Z" transform="translate(-171.34 -73.3)"/><rect class="cls-2" x="402.54" y="51.05" width="10" height="0.67" rx="0.34" ry="0.34"/><path id="rect34754" class="cls-2" d="M509,305.76a3.39,3.39,0,0,0-3.38,3.38v6.76a3.38,3.38,0,0,0,6.75,0v-6.76A3.39,3.39,0,0,0,509,305.76Zm1.44,10.14a1.45,1.45,0,0,1-2.89,0v-6.76a1.45,1.45,0,1,1,2.89,0Zm-33.39-10.14a3.39,3.39,0,0,0-3.38,3.38v6.76a3.38,3.38,0,0,0,6.76,0v-6.76A3.4,3.4,0,0,0,477.08,305.76Zm1.45,10.14a1.45,1.45,0,0,1-2.9,0v-6.76a1.45,1.45,0,1,1,2.9,0Zm22.29,1.44h-1V306.72a1,1,0,0,0-1-1h0a1,1,0,0,0-.65.28l-2.9,2.9a1,1,0,0,0,1.35,1.38h0l1.24-1.25v8.29H496a1,1,0,1,0,0,1.93h2.76a.81.81,0,0,0,.31,0h1.78a1,1,0,0,0,0-1.93Zm-10.65,0h-1V306.72a1,1,0,0,0-1-1h0a1,1,0,0,0-.65.28l-2.9,2.9a1,1,0,1,0,1.35,1.38h0l1.26-1.25v8.29h-1.93a1,1,0,1,0,0,1.93h2.77a.86.86,0,0,0,.32,0h1.77a1,1,0,0,0,0-1.93Zm18.86-29a3.4,3.4,0,0,0-3.38,3.39v6.75a3.38,3.38,0,1,0,6.75,0v-6.75A3.4,3.4,0,0,0,509,288.36Zm1.44,10.14a1.45,1.45,0,1,1-2.89,0v-6.75a1.45,1.45,0,1,1,2.89,0Zm-12.09-10.14a3.4,3.4,0,0,0-3.38,3.39v6.75a3.38,3.38,0,0,0,6.76,0v-6.75A3.4,3.4,0,0,0,498.38,288.36Zm1.45,10.14a1.45,1.45,0,0,1-2.9,0v-6.75a1.45,1.45,0,0,1,2.9,0ZM490.17,300h-1V289.32a1,1,0,0,0-1-1h0a.94.94,0,0,0-.65.28l-2.9,2.89a1,1,0,0,0,1.34,1.4l0,0,1.26-1.25V300h-1.93a1,1,0,0,0-1,.94,1,1,0,0,0,.95,1h4.86a1,1,0,0,0,1-1A1,1,0,0,0,490.17,300Zm-10.65,0h-1V289.32a1,1,0,0,0-1-1h0a.94.94,0,0,0-.65.28l-2.9,2.89a1,1,0,0,0,1.35,1.39l0,0,1.24-1.25V300h-1.93a1,1,0,0,0-1,.94,1,1,0,0,0,1,1h4.85a1,1,0,0,0,1-1A1,1,0,0,0,479.52,300Z" transform="translate(-171.34 -73.3)"/><path class="cls-7" d="M216.91,138.64c9.17-3.16,15.7-10.5,16.73-19.85a81.45,81.45,0,0,0-.07-12.2,2.57,2.57,0,0,0-2.5-2.39c-4.15-.13-9-.82-12.7-4.49a2.08,2.08,0,0,0-2.92,0c-3.72,3.67-8.54,4.36-12.69,4.49a2.56,2.56,0,0,0-2.5,2.39,80.14,80.14,0,0,0-.07,12.2c1,9.35,7.56,16.69,16.72,19.85Z" transform="translate(-171.34 -73.3)"/><path class="cls-7" d="M211.16,116.9h11.51a.79.79,0,0,1,.79.79v8.51a.79.79,0,0,1-.79.79H211.16a.79.79,0,0,1-.79-.79v-8.51a.79.79,0,0,1,.79-.79Z" transform="translate(-171.34 -73.3)"/><path class="cls-7" d="M212.58,116.9v-1.82a4.33,4.33,0,0,1,8.66,0v1.82" transform="translate(-171.34 -73.3)"/><circle class="cls-7" cx="45.57" cy="48.64" r="1.68"/></svg>