<svg id="Layer_1" data-name="Layer 1" xmlns="http://www.w3.org/2000/svg" viewBox="0 0 639.95 512.11"><defs><style>.cls-1{fill:#671fec;}</style></defs><title>coding</title><path class="cls-1" d="M392.8,1.2a32,32,0,0,0-39.6,22l-128,448a32,32,0,1,0,61.6,17.6l128-448a32,32,0,0,0-22-39.6Zm80.6,120.1a32,32,0,0,0,0,45.3L562.7,256l-89.4,89.4a32,32,0,0,0,45.3,45.3l112-112a32,32,0,0,0,0-45.3l-112-112a32,32,0,0,0-45.3,0Zm-306.7,0a32,32,0,0,0-45.3,0l-112,112a32,32,0,0,0,0,45.3l112,112a32,32,0,1,0,45.3-45.3L77.3,256l89.4-89.4a32,32,0,0,0,0-45.3Z" transform="translate(-0.02 0.05)"/></svg>