<svg id="Layer_1" data-name="Layer 1" xmlns="http://www.w3.org/2000/svg" viewBox="0 0 511.97 512.07"><defs><style>.cls-1{fill:#671fec;}</style></defs><title>magnify</title><path class="cls-1" d="M416,208a207.49,207.49,0,0,1-40,122.7L502.6,457.4a32,32,0,0,1-45.3,45.3L330.7,376A206.81,206.81,0,0,1,208,416C93.1,416,0,322.9,0,208S93.1,0,208,0,416,93.1,416,208Zm-312,8v64a24,24,0,0,0,48,0V216a24,24,0,0,0-48,0Zm80-96V280a24,24,0,0,0,48,0V120a24,24,0,0,0-48,0Zm80,64v96a24,24,0,0,0,48,0V184a24,24,0,0,0-48,0Z"/></svg>