<svg id="Layer_1" data-name="Layer 1" xmlns="http://www.w3.org/2000/svg" viewBox="0 0 493.77 493.93"><defs><style>.cls-1{fill:#671fec;}</style></defs><title>Plan</title><path class="cls-1" d="M186.86,10.59c-6.06,2-16.43,12.6-18.28,18.89-1,3.59-1.48,18-1.48,48.67s.49,45.07,1.48,48.66c2,6.79,12.22,17,19,19,3.7,1.11,22.35,1.48,68.42,1.48s64.71-.37,68.42-1.48c6.79-2,17-12.23,19-19,.86-3,1.48-12.35,1.48-22V88h33.72c38.9,0,45.45,1,61.38,8.76,31.37,15.57,48.66,51.88,41.37,87-7.16,34.21-36.18,58.54-74.1,62l-8.64.74L404,240.8c3.7-4.2,5.18-6.79,5.18-9.51,0-5.19-4.81-9.88-10.12-9.88-3.46,0-5.93,2-19.15,15.19-20.25,20.26-20.25,18.65.13,38.78,16.21,16.22,16.51,15.56,21.78,15a7.72,7.72,0,0,0,6.34-5c1.84-5,1.57-7.93-3.92-13.8l-4.94-5.31,10.13-1c41.37-3.58,74.6-28.15,87.56-64.59,15.44-43.84-.49-91-39.27-116.34a96,96,0,0,0-16.18-8.64c-16.92-6.43-18.65-6.55-58.54-7.17l-38-.49V51.34c0-19.88-1.23-24.57-8.27-32.48-9-10.12-7.41-9.88-81.15-9.75C212.42,9.23,189.7,9.72,186.86,10.59ZM322.09,31.83h0a10,10,0,0,1,3.09,7.25v78.13a10,10,0,0,1-3.09,7.25h0a10,10,0,0,1-7.25,3.09H197.19a10.06,10.06,0,0,1-7.25-3.09h0a10,10,0,0,1-3.08-7.25V39.08a10.08,10.08,0,0,1,3.08-7.25h0a10.05,10.05,0,0,1,7.25-3.09H314.84a10.05,10.05,0,0,1,7.25,3.09Z" transform="translate(-9.04 -9.07)"/><path class="cls-1" d="M209.7,51.59a9.75,9.75,0,0,0,6.8,16.67,10.43,10.43,0,0,0,9.88-9.88,10.44,10.44,0,0,0-9.88-9.88A9.68,9.68,0,0,0,209.7,51.59Z" transform="translate(-9.04 -9.07)"/><path class="cls-1" d="M249.23,51.59a9,9,0,0,0,0,13.59c3,3.08,3.21,3.08,26.55,3.08s23.59,0,26.55-3.08a9,9,0,0,0,0-13.59c-3-3.09-3.21-3.09-26.55-3.09S252.19,48.5,249.23,51.59Z" transform="translate(-9.04 -9.07)"/><path class="cls-1" d="M209.7,91.11a9,9,0,0,0,0,13.59h0a10.05,10.05,0,0,0,7.25,3.09h78.13a10.09,10.09,0,0,0,7.25-3.09h0a9,9,0,0,0,0-13.59h0A10,10,0,0,0,295.08,88H217a10,10,0,0,0-7.25,3.08Z" transform="translate(-9.04 -9.07)"/><path class="cls-1" d="M106,46.65c-4.69,4.57-4.08,9.51,2,16.06l5.18,5.55H15.06l-3,3.09a9.07,9.07,0,0,0,0,13.59l3,3.09h98.06l-5.18,5.55c-4.65,5.13-5.76,8-4.7,11.75a10.16,10.16,0,0,0,9.57,7.4c3.36,0,6-2,19.21-15.19C152.4,77.4,152.4,79,132.14,58.76c-13.21-13.22-15.68-15.2-19.14-15.2A9.77,9.77,0,0,0,106,46.65Z" transform="translate(-9.04 -9.07)"/><path class="cls-1" d="M186.86,188.43c-6.06,2-16.43,12.6-18.28,18.9-.87,3-1.48,12.35-1.48,21.86v16.67l-37.92.5c-40,.62-41.75.74-58.67,7.16a95.29,95.29,0,0,0-16.17,8.65C15.56,287.48-.38,334.66,15.06,378.51c13,36.31,46.32,61,87.57,64.59l10.12,1-4.94,5.31c-4.25,4.54-5.37,7.35-4.8,10.68a10.12,10.12,0,0,0,9.63,8.34c3.45.1,6-1.79,19.38-15.19,20.38-20.13,20.38-18.53.12-38.78-13.21-13.22-15.68-15.19-19.14-15.19-5.31,0-10.13,4.69-10.13,9.88,0,2.71,1.48,5.31,5.31,9.51l5.19,5.68-9-.87c-38-3.7-66.56-27.66-73.73-61.87C23.21,326.39,40.5,290.2,72,274.64c15.93-7.78,22.47-8.77,61.5-8.77h33.6v16.8c0,9.63.61,19,1.48,22,2,6.79,12.22,17.05,19,19,7.28,2.1,129.55,2.1,136.84,0,6.79-2,17-12.23,19-19,2.1-7,2.1-90.16,0-97.07-.74-2.72-3.83-7.66-6.79-10.87-9-10.13-7.41-9.88-81.15-9.76C212.42,187.08,189.7,187.57,186.86,188.43Zm135.23,21.25h0a10,10,0,0,1,3.09,7.25v78.13a10.06,10.06,0,0,1-3.09,7.25h0a10,10,0,0,1-7.25,3.08H197.19a10.09,10.09,0,0,1-7.25-3.08h0a10,10,0,0,1-3.08-7.25V216.93a10.08,10.08,0,0,1,3.08-7.25h0a10,10,0,0,1,7.25-3.09H314.84a10,10,0,0,1,7.25,3.09Z" transform="translate(-9.04 -9.07)"/><path class="cls-1" d="M209.7,229.44a9.75,9.75,0,0,0,6.8,16.67,9.88,9.88,0,1,0,0-19.76A9.64,9.64,0,0,0,209.7,229.44Z" transform="translate(-9.04 -9.07)"/><path class="cls-1" d="M249.23,229.44a9,9,0,0,0,0,13.58c3,3.09,3.21,3.09,26.55,3.09s23.59,0,26.55-3.09a9,9,0,0,0,0-13.58c-3-3.09-3.21-3.09-26.55-3.09S252.19,226.35,249.23,229.44Z" transform="translate(-9.04 -9.07)"/><path class="cls-1" d="M209.7,269a9,9,0,0,0,0,13.58h0a10,10,0,0,0,7.25,3.09h78.13a10,10,0,0,0,7.25-3.09h0a9,9,0,0,0,0-13.58h0a10,10,0,0,0-7.25-3.09H217A10,10,0,0,0,209.7,269Z" transform="translate(-9.04 -9.07)"/><path class="cls-1" d="M186.86,366.28c-6.06,2-16.43,12.6-18.28,18.9-1,3.58-1.48,18-1.48,48.66s.49,45.08,1.48,48.66c2,6.79,12.22,17,19,19,3.7,1.11,22.35,1.48,68.66,1.48,72.87,0,71.39.25,80.41-9.88,3-3.21,6.05-8.15,6.79-10.87,2.1-6.79,2.1-90,0-96.83-.74-2.71-3.83-7.65-6.79-10.86-9-10.13-7.41-9.89-81.15-9.76C212.42,364.92,189.7,365.42,186.86,366.28Zm135.23,21.24h0a10,10,0,0,1,3.09,7.25V472.9a10,10,0,0,1-3.09,7.25h0a10,10,0,0,1-7.25,3.09H197.19a10.06,10.06,0,0,1-7.25-3.09h0a10,10,0,0,1-3.08-7.25V394.77a10.09,10.09,0,0,1,3.08-7.25h0a10,10,0,0,1,7.25-3.08H314.84a10,10,0,0,1,7.25,3.08Z" transform="translate(-9.04 -9.07)"/><path class="cls-1" d="M266.27,421.73l-20.13,20.13-10.25-10.25c-9-9-10.75-10.12-14.7-10.12-3.46,0-5.19.74-7,3.21-5.31,6.67-3.21,10.87,14,27.42,13.83,13.21,17.53,15.31,22.1,12.22,5.19-3.33,46.69-44.46,48.42-47.92,2.47-4.69,2.34-7.65-.74-11.48-1.86-2.47-3.59-3.21-7-3.21C286.52,401.73,284.92,403.08,266.27,421.73Z" transform="translate(-9.04 -9.07)"/></svg>