<svg id="Layer_1" data-name="Layer 1" xmlns="http://www.w3.org/2000/svg" viewBox="0 0 512.03 512.01"><defs><style>.cls-1{fill:#671fec;}</style></defs><title>tools</title><path class="cls-1" d="M78.6,5A24,24,0,0,0,47,7L7,47A24.08,24.08,0,0,0,4.9,78.6l80,104a24,24,0,0,0,19,9.4H158L267,301a77.24,77.24,0,0,0,14.3,89.6l112,112a32,32,0,0,0,45.3,0l64-64a32,32,0,0,0,0-45.3l-112-112A77.4,77.4,0,0,0,301,267L192,158V104a23.87,23.87,0,0,0-9.4-19ZM19.9,396.1a67.88,67.88,0,1,0,96,96L233.7,374.3a109.72,109.72,0,0,1-3.6-65.1l-61.7-61.7ZM512,144a145.42,145.42,0,0,0-3.2-30.5c-2.4-11.2-16.1-14.1-24.2-6l-63.9,63.9a16.06,16.06,0,0,1-11.3,4.7H352a16,16,0,0,1-16-16V102.6a16.06,16.06,0,0,1,4.7-11.3l63.9-63.9c8.1-8.1,5.2-21.8-6-24.2A147.08,147.08,0,0,0,368,0,144,144,0,0,0,224,144v.8l85.3,85.3a109.13,109.13,0,0,1,104,28.7L429,274.5A144.18,144.18,0,0,0,512,144ZM56,432a24,24,0,1,1,24,24A24,24,0,0,1,56,432Z" transform="translate(0.03 0.01)"/></svg>